# xmcd
#
# Track frame offsets: 
#        150
#        14695
#        29742
#        46850
#        65937
#        84237
#        100282
#        113667
#        129525
#        141360
#        159072
#        173842
#        190567
#
# Disc length: 2718 seconds
#
# Revision: 0
# Processed by: cddbd v1.5.2PL0 Copyright (c) Steve Scherf et al.
# Submitted via: ExactAudioCopy v1.0b1
#
DISCID=ab0a9c0d
DTITLE=Ballew, Michael - You Better Hold On
DYEAR=1995
DGENRE=Country
TTITLE0=Blue To The Bone
TTITLE1=Livin' In Limbo
TTITLE2=Nothin' On Me
TTITLE3=Tiny Fingers, Tiny Toes
TTITLE4=Texas Girl
TTITLE5=Blue Water
TTITLE6=Boot Scootin'
TTITLE7=Your Memory Is Better Than Mine
TTITLE8=You Better Hold On
TTITLE9=Hill Country Wine
TTITLE10=For The Honey
TTITLE11=Dig In, Get Tough
TTITLE12=Today Will Never End
EXTD=
EXTT0=
EXTT1=
EXTT2=
EXTT3=
EXTT4=
EXTT5=
EXTT6=
EXTT7=
EXTT8=
EXTT9=
EXTT10=
EXTT11=
EXTT12=
PLAYORDER=
